<svg xmlns="http://www.w3.org/2000/svg" width="512" height="512" viewBox="0 0 256 256" fill="none">
  <defs>
    <linearGradient id="g" x1="0" y1="0" x2="1" y2="1">
      <stop offset="0" stop-color="#6aa3ff"/>
      <stop offset="1" stop-color="#9af3cf"/>
    </linearGradient>
  </defs>
  <rect width="256" height="256" rx="48" fill="#101521"/>
  <path d="M128 44c-46 0-84 38-84 84s38 84 84 84 84-38 84-84-38-84-84-84zm0 22c34 0 62 28 62 62s-28 62-62 62-62-28-62-62 28-62 62-62z" fill="url(#g)" opacity="0.9"/>
  <path d="M86 128c0-23.2 18.8-42 42-42s42 18.8 42 42-18.8 42-42 42" stroke="url(#g)" stroke-width="10" stroke-linecap="round"/>
  <circle cx="128" cy="128" r="10" fill="url(#g)"/>
</svg>
